# xmcd CD database file
#
# Track frame offsets:
#	150
#	20072
#	36302
#	46732
#	66235
#	82015
#	93935
#	112942
#	125442
#	138877
#	158762
#
# Disc length: 2324 seconds
#
# Revision: 4
# Processed by: cddbd v1.5.2PL0 Copyright (c) Steve Scherf et al.
# Submitted via: CDex 1.70beta2
#
DISCID=8a09120b
DTITLE=Nanci Griffith - Late Night Grande Hotel
DYEAR=1991
DGENRE=Country
TTITLE0=It's Just Another Morning Here
TTITLE1=Late Night Grande Hotel
TTITLE2=It's Too Late
TTITLE3=Fields Of Summer
TTITLE4=Heaven
TTITLE5=The Power Lines
TTITLE6=Hometown Streets
TTITLE7=Down 'N' Outer
TTITLE8=One Blade Shy Of A Sharp Edge
TTITLE9=The Sun, Moon, And Stars
TTITLE10=San Diego Serenade
EXTD=YEAR: 1991
EXTT0=
EXTT1=
EXTT2=
EXTT3=
EXTT4=
EXTT5=
EXTT6=
EXTT7=
EXTT8=
EXTT9=
EXTT10=
PLAYORDER=
